<?xml version="1.0" standalone="no"?>
<!DOCTYPE svg PUBLIC "-//W3C//DTD SVG 20010904//EN"
 "http://www.w3.org/TR/2001/REC-SVG-20010904/DTD/svg10.dtd">
<svg version="1.0" xmlns="http://www.w3.org/2000/svg"
 width="512.000000pt" height="512.000000pt" viewBox="0 0 512.000000 512.000000"
 preserveAspectRatio="xMidYMid meet">
<metadata>
Created by potrace 1.14, written by Peter Selinger 2001-2017
</metadata>
<g transform="translate(0.000000,512.000000) scale(0.100000,-0.100000)"
fill="#000000" stroke="none">
<path d="M2670 5104 c-647 -87 -1208 -495 -1489 -1084 -278 -583 -246 -1266
86 -1818 l63 -106 -30 -85 c-16 -48 -68 -226 -114 -398 l-84 -312 -153 -193
c-84 -106 -161 -209 -171 -228 -22 -43 -24 -134 -3 -174 18 -35 40 -9 -297
-352 -223 -225 -227 -231 -196 -299 26 -59 -99 -55 1957 -55 1371 0 1897 3
1915 11 51 23 54 46 86 501 40 572 42 522 -26 593 -57 59 -101 137 -111 198
-4 28 2 44 31 89 66 100 112 276 88 338 -9 23 -2 33 87 125 114 119 208 240
226 291 24 69 -26 134 -101 134 -40 0 -58 -16 -129 -114 -59 -82 -209 -243
-257 -277 l-27 -20 -10 39 c-9 32 -5 72 25 233 53 293 120 469 249 659 106
156 135 236 135 376 0 108 -22 189 -75 279 -62 105 -145 156 -230 142 -57 -9
-82 -26 -274 -182 -101 -81 -186 -144 -190 -139 -4 5 -16 142 -25 304 -23 388
-37 443 -140 544 -67 67 -272 182 -347 196 -101 19 -203 -15 -277 -92 -20 -22
-113 -197 -256 -485 -152 -305 -236 -464 -262 -493 -29 -32 -77 -61 -219 -130
-206 -101 -298 -166 -372 -265 -26 -35 -109 -170 -183 -299 l-135 -235 -32 57
c-123 216 -202 532 -203 807 -1 829 562 1517 1386 1695 127 28 410 38 551 20
389 -48 746 -229 1023 -517 136 -141 216 -255 300 -428 131 -267 170 -433 179
-758 6 -215 6 -219 30 -238 50 -41 118 -35 155 14 18 24 21 45 24 163 32 1091
-849 1991 -1943 1983 -71 -1 -177 -7 -235 -15z m749 -1550 c15 -224 26 -342
37 -371 27 -74 113 -133 195 -133 54 0 98 27 292 183 154 123 202 156 209 146
5 -8 21 -39 36 -69 21 -45 26 -69 26 -135 0 -95 -13 -128 -103 -265 -106 -160
-194 -354 -235 -515 -30 -120 -76 -392 -76 -452 0 -87 31 -165 91 -229 27 -28
65 -59 84 -70 19 -10 35 -24 35 -30 0 -25 -34 -92 -76 -147 -36 -48 -44 -67
-44 -101 0 -116 51 -256 130 -356 l44 -54 -23 -331 c-12 -181 -25 -351 -28
-378 l-6 -47 -283 0 c-156 0 -284 3 -284 6 0 3 68 171 152 372 99 240 151 380
152 405 1 63 -31 85 -165 112 -207 41 -371 108 -543 222 -126 83 -308 263
-387 383 -111 167 -191 356 -223 531 -21 109 -33 137 -67 154 -42 22 -83 18
-117 -10 -40 -34 -44 -63 -21 -179 68 -354 272 -706 541 -931 214 -180 412
-282 704 -362 l30 -8 -140 -342 -141 -343 -1295 0 -1295 0 147 146 146 147 32
-23 c66 -47 139 -70 227 -70 77 0 103 6 350 86 361 115 491 179 666 328 123
106 277 326 277 398 0 74 -84 123 -151 88 -10 -6 -49 -57 -85 -113 -74 -114
-186 -231 -282 -296 -105 -71 -215 -117 -476 -201 -277 -89 -322 -96 -391 -57
-38 22 -114 117 -115 145 0 20 444 575 498 622 66 57 192 118 282 134 41 8 76
13 78 11 11 -10 -21 -145 -47 -200 -39 -84 -101 -145 -193 -188 -79 -38 -98
-61 -98 -118 0 -22 10 -41 35 -66 32 -32 40 -35 74 -30 119 16 293 156 364
293 44 86 62 161 76 321 12 134 8 158 -35 192 -32 25 -67 26 -207 6 -134 -20
-225 -48 -315 -96 l-74 -39 8 32 c18 83 78 282 111 363 43 109 77 175 241 460
160 277 204 326 370 409 61 31 113 56 115 56 3 0 -6 -41 -19 -92 -38 -149 -39
-168 -12 -207 39 -58 100 -65 152 -18 20 17 32 50 56 152 56 230 94 326 262
666 l161 327 76 -37 c67 -32 85 -36 151 -36 121 1 211 55 273 163 26 46 32 52
38 35 4 -10 17 -167 28 -349z"/>
<path d="M4605 2681 c-88 -38 -79 -164 13 -192 32 -9 44 -8 70 5 64 33 79 118
28 165 -26 24 -80 35 -111 22z"/>
</g>
</svg>
